<?xml version="1.0" encoding="utf-8"?>
<!-- Generator: Adobe Illustrator 26.2.1, SVG Export Plug-In . SVG Version: 6.00 Build 0)  -->
<svg version="1.1" id="Layer_1" xmlns="http://www.w3.org/2000/svg" xmlns:xlink="http://www.w3.org/1999/xlink" x="0px" y="0px"
	 viewBox="0 0 476.5 317.55" style="enable-background:new 0 0 476.5 317.55;" xml:space="preserve">
<style type="text/css">
	.st0{fill:none;stroke:#000000;stroke-width:14;stroke-linecap:round;stroke-linejoin:round;stroke-miterlimit:10;}
	.st1{stroke:#000000;stroke-miterlimit:10;}
</style>
<path class="st0" d="M189.41,261.92c0,0,53.23,56.55,110.89,47.68c0,0,84.83,3.33,116.98-52.67c0,0,1.11-12.2,12.75-19.4
	c0,0,45.46-21.62,38.81-59.32c-6.65-37.7-47.13-47.68-47.13-47.68s-12.75-11.09-135.84-4.99L68.19,127.2c0,0-56.75,7.76-61.19,58.22
	c0,0,0,35.48,50.45,53.78S189.41,261.92,189.41,261.92z"/>
<path class="st1" d="M285.88,125.53c9.73-0.48,18.76-0.86,27.16-1.14c0.66-3.03-0.08-6.39-2.67-8.97L198.25,3.37
	c-3.83-3.83-10.05-3.83-13.88,0L72.25,115.42c-3.42,3.42-3.61,8.18-1.62,11.76L285.88,125.53z"/>
<path class="st0" d="M80.74,179.87c0,0,15.52,0,23.84-8.87c0,0,16.63,11.09,26.61,8.87c0,0,10.53-2.22,21.07-8.87
	c0,0,12.2,10.01,24.95,9.16c0,0,16.08-3.07,21.62-9.16c0,0,13.31,9,22.73,9.22c0,0,16.63-0.9,23.84-9.22c0,0,6.65,5.68,24.39,9.22
	c0,0,13.31-2.01,23.29-9.22c0,0,14.75,9,22.62,9.22c0,0,11.64,2.98,21.68-9.22c0,0,11.7,10.2,25.01,9.54"/>
<path class="st0" d="M235.98,233.09c0,0,13.31,1.66,23.29-10.53c0,0,12.75,11.24,24.95,10.61c0,0,11.64-0.63,23.84-10.61
	c0,0,13.31,12.96,24.39,10.64c0,0,14.42-1.77,22.73-10.64c0,0,14.08,14.07,23.95,10.91"/>
<path class="st1" d="M339.35,123.78c33.46-0.41,53.53,0.95,65.45,2.55c-0.26-2.22-1.24-4.37-2.94-6.08l-86.84-86.84
	c-4.03-4.03-10.57-4.03-14.6,0L282,51.83c-4.03,4.03-4.03,10.57,0,14.6L339.35,123.78z"/>
</svg>
