<svg  version="1.1" xmlns="http://www.w3.org/2000/svg" viewBox="0 0 22 22">

<rect x="1" y="4" width="20" height="15" fill="none" stroke="black" stroke-width=".3" rx="1.5"/>

<rect x="3" y="2" width="3" height="4" fill="black" stroke="black" stroke-width=".3" rx=".7"/>

<rect x="16" y="2" width="3" height="4" fill="black" stroke="black" stroke-width=".3" rx=".7"/>

<rect x="7" y="6" width="8" height="2" fill="none" stroke="black" stroke-width=".3" rx=".7"/>

<line x1="1" y1="9" x2="21" y2="9" stroke-width=".3" stroke="black" />

    <rect x="2" y="10" width="3" height="2" fill="none" stroke="black" stroke-width=".3" rx=".2"/>

    <rect x="7" y="10" width="3" height="2" fill="none" stroke="black" stroke-width=".3" rx=".2"/>

    <rect x="12" y="10" width="3" height="2" fill="none" stroke="black" stroke-width=".3" rx=".2"/>

    <rect x="17" y="10" width="3" height="2" fill="none" stroke="black" stroke-width=".3" rx=".2"/>

    <rect x="7" y="13" width="3" height="2" fill="none" stroke="black" stroke-width=".3" rx=".2"/>

    <rect x="12" y="13" width="3" height="2" stroke="black" stroke-width=".3" rx=".2">
    <animate attributeName="fill" values="white; black; white" dur="3s" repeatCount="indefinite"/>
    </rect>

    <rect x="17" y="13" width="3" height="2" stroke="black" stroke-width=".3" rx=".2">
    <animate attributeName="fill" values="white; black; white" dur="3s" repeatCount="indefinite"/>
    </rect>

    <rect x="2" y="13" width="3" height="2" fill="none" stroke="black" stroke-width=".3" rx=".2"/>

    <rect x="2" y="16" width="3" height="2" fill="none" stroke="black" stroke-width=".3" rx=".2"/>

    <rect x="7" y="16" width="3" height="2" fill="none" stroke="black" stroke-width=".3" rx=".2"/>

    <rect x="12" y="16" width="3" height="2" fill="none" stroke="black" stroke-width=".3" rx=".2"/>

    <rect x="17" y="16" width="3" height="2" fill="none" stroke="black" stroke-width=".3" rx=".2"/>



</svg>
